<svg width="135" height="197" viewBox="0 0 135 197" fill="none" xmlns="http://www.w3.org/2000/svg">
<path fill-rule="evenodd" clip-rule="evenodd" d="M83 5.35813C69.525 8.25313 46.35 13.1891 31.5 16.3261C16.65 19.4641 3.488 22.2771 2.25 22.5791L0 23.1271L0.0220032 102.768L0.0450134 182.41L13.772 189.704L27.5 196.997L74 186.878C99.575 181.312 122.835 176.113 125.689 175.324C135 172.5 135 172.5 135 161V92.4661C135 19.5691 134.93 16.6931 133.059 13.0251C130.783 8.56414 125.012 3.23113 120.355 1.28513C118.545 0.529135 114.912 -0.047863 112.282 0.00313704C109.652 0.053137 96.475 2.46413 83 5.35813ZM115.799 14.9381C118.614 17.5601 119.5 21 118.125 24.5361C117.5 26 115.534 27.6081 113.748 28.3351C111.961 29.0611 92.164 33.4261 69.753 38.0331L29.007 46.4101L29.003 114.711L29 183.011L21 178.849L13 174.687V103.799C13 64.8101 13.113 32.8891 13.25 32.8631C13.387 32.8381 34.65 28.3801 60.5 22.9571C86.35 17.5341 108.878 13.0551 110.561 13.0031C112.36 12.9491 114.521 13.7461 115.799 14.9381Z" fill="#ffffff"/>
</svg>
